{"title":"Philips and the Monkey Pen DVDRip Encoded By AkashBhai","uid":9963410,"size":418618255,"categoryP":"video","categoryS":"movies_dvdr","magnet":"?xt=urn:btih:0d71f285f0253c5bc7c2df6d244b6e317db699e1&amp;dn=Philips+and+the+Monkey+Pen+DVDRip+Encoded+By+AkashBhai&amp;tr=udp%3A%2F%2Ftracker.openbittorrent.com%3A80&amp;tr=udp%3A%2F%2Fopen.demonii.com%3A1337&amp;tr=udp%3A%2F%2Ftracker.coppersurfer.tk%3A6969&amp;tr=udp%3A%2F%2Fexodus.desync.com%3A6969","seeders":1,"leechers":1,"uploader":"OnlyByTheRain","files":4,"time":1397543982,"description":"Philips and the Monkey Pen (2013) 395MB Malayalam DVDRip -=AkashBhai= &lt;a href=&quot;\nhttp://songspkhd.com/wp-content/uploads/2013/11/Philips-and-the-Monkey-Pen.jpg&quot; rel=&quot;nofollow&quot; target=&quot;_NEW&quot;&gt;\nhttp://songspkhd.com/wp-content/uploads/2013/11/Philips-and-the-Monkey-Pen.jpg&lt;/a&gt;\n &lt;a href=&quot;\nhttp://imageshack.us/a/img89/9642/6n81.png&quot; rel=&quot;nofollow&quot; target=&quot;_NEW&quot;&gt;\nhttp://imageshack.us/a/img89/9642/6n81.png&lt;/a&gt;\n\nGeneral\nEncoded/Released By              : AkashBhai\nComplete name                    : Philips and the Monkey Pen DVDRip Encoded By AkashBhaiPhilips and the Monkey Pen.mp4\nFormat                           : MPEG-4\nFormat profile                   : Base Media / Version 2\nCodec ID                         : mp42\nFile size                        : 399 MiB\nDuration                         : 2h 18mn\nOverall bit rate                 : 402 Kbps\nEncoded date                     : UTC 2014-04-07 14:54:24\nTagged date                      : UTC 2014-04-07 15:17:23\nWriting application              : HandBrake 0.9.5 2011010300\n\nVideo\nID                               : 1\nFormat                           : AVC\nFormat/Info                      : Advanced Video Codec\nFormat profile                   : &lt;a class=&quot;__cf_email__&quot; href=&quot;/cdn-cgi/l/email-protection&quot; data-cfemail=&quot;5d103c34331d116e736d&quot;&gt;[email&amp;#160;protected]&lt;/a&gt;&lt;script cf-hash='f9e31' type=&quot;text/javascript&quot;&gt;\n/* &lt;![CDATA[ */!function(){try{var t=&quot;currentScript&quot;in document?document.currentScript:function(){for(var t=document.getElementsByTagName(&quot;script&quot;),e=t.length;e--;)if(t[e].getAttribute(&quot;cf-hash&quot;))return t[e]}();if(t&amp;&amp;t.previousSibling){var e,r,n,i,c=t.previousSibling,a=c.getAttribute(&quot;data-cfemail&quot;);if(a){for(e=&quot;&quot;,r=parseInt(a.substr(0,2),16),n=2;a.length-n;n+=2)i=parseInt(a.substr(n,2),16)^r,e+=String.fromCharCode(i);e=document.createTextNode(e),c.parentNode.replaceChild(e,c)}}}catch(u){}}();/* ]]&gt; */&lt;/script&gt;\nFormat settings, CABAC           : Yes\nFormat settings, ReFrames        : 4 frames\nCodec ID                         : avc1\nCodec ID/Info                    : Advanced Video Coding\nDuration                         : 2h 18mn\nBit rate mode                    : Variable\nBit rate                         : 239 Kbps\nWidth                            : 720 pixels\nHeight                           : 304 pixels\nDisplay aspect ratio             : 2.35:1\nFrame rate mode                  : Variable\nFrame rate                       : 23.976 fps\nMinimum frame rate               : 7.992 fps\nMaximum frame rate               : 23.981 fps\nColor space                      : YUV\nChroma subsampling               : 4:2:0\nBit depth                        : 8 bits\nScan type                        : Progressive\nBits/(Pixel*Frame)               : 0.046\nStream size                      : 235 MiB (59%)\nWriting library                  : x264 core 112\nEncoding settings                : cabac=1 / ref=2 / deblock=1:0:0 / analyse=0x1:0x111 / me=hex / subme=6 / psy=1 / psy_rd=1.00:0.00 / mixed_ref=0 / me_range=16 / chroma_me=1 / trellis=0 / 8x8dct=0 / cqm=0 / deadzone=21,11 / fast_pskip=1 / chroma_qp_offset=-2 / threads=6 / sliced_threads=0 / nr=0 / decimate=1 / interlaced=0 / constrained_intra=0 / bframes=2 / b_pyramid=2 / b_adapt=1 / b_bias=0 / direct=1 / weightb=0 / open_gop=0 / weightp=2 / keyint=240 / keyint_min=23 / scenecut=40 / intra_refresh=0 / rc_lookahead=40 / rc=abr / mbtree=1 / bitrate=239 / ratetol=1.0 / qcomp=0.60 / qpmin=3 / qpmax=51 / qpstep=4 / ip_ratio=1.40 / aq=1:1.00\nEncoded date                     : UTC 2014-04-07 14:54:24\nTagged date                      : UTC 2014-04-07 15:17:23\nColor primaries                  : BT.601-6 525, BT.1358 525, BT.1700 NTSC, SMPTE 170M\nTransfer characteristics         : BT.709-5, BT.1361\nMatrix coefficients              : BT.601-6 525, BT.1358 525, BT.1700 NTSC, SMPTE 170M\n\nAudio\nID                               : 2\nFormat                           : AAC\nFormat/Info                      : Advanced Audio Codec\nFormat profile                   : LC\nCodec ID                         : 40\nDuration                         : 2h 18mn\nBit rate mode                    : Variable\nBit rate                         : 160 Kbps\nMaximum bit rate                 : 296 Kbps\nChannel(s)                       : 2 channels\nChannel positions                : Front: L R\nSampling rate                    : 48.0 KHz\nCompression mode                 : Lossy\nStream size                      : 159 MiB (40%)\nEncoded date                     : UTC 2014-04-07 14:54:24\nTagged date                      : UTC 2014-04-07 15:17:22\n &lt;a href=&quot;\nhttp://imageshack.us/a/img43/9534/9gap.png[/img]&quot; rel=&quot;nofollow&quot; target=&quot;_NEW&quot;&gt;\nhttp://imageshack.us/a/img43/9534/9gap.png[/img]&lt;/a&gt; &lt;a href=&quot;\nhttp://i.imgur.com/EF2te9r.png]&quot; rel=&quot;nofollow&quot; target=&quot;_NEW&quot;&gt;\nhttp://i.imgur.com/EF2te9r.png]&lt;/a&gt; &lt;a href=&quot;\nhttp://i.imgur.com/ZuWXLTJ.png&quot; rel=&quot;nofollow&quot; target=&quot;_NEW&quot;&gt;\nhttp://i.imgur.com/ZuWXLTJ.png&lt;/a&gt; &lt;a href=&quot;\nhttp://i.imgur.com/GOqbVCw.png&quot; rel=&quot;nofollow&quot; target=&quot;_NEW&quot;&gt;\nhttp://i.imgur.com/GOqbVCw.png&lt;/a&gt; &lt;a href=&quot;\nhttp://i.imgur.com/RJq3jb2.png&quot; rel=&quot;nofollow&quot; target=&quot;_NEW&quot;&gt;\nhttp://i.imgur.com/RJq3jb2.png&lt;/a&gt; &lt;a href=&quot;\nhttp://i.imgur.com/wFXLlxd.png&quot; rel=&quot;nofollow&quot; target=&quot;_NEW&quot;&gt;\nhttp://i.imgur.com/wFXLlxd.png&lt;/a&gt; &lt;a href=&quot;\nhttp://i.imgur.com/FfNBZ7h.png&quot; rel=&quot;nofollow&quot; target=&quot;_NEW&quot;&gt;\nhttp://i.imgur.com/FfNBZ7h.png&lt;/a&gt;\n","torrent":{"xt":"urn:btih:0d71f285f0253c5bc7c2df6d244b6e317db699e1","amp;dn":"Philips+and+the+Monkey+Pen+DVDRip+Encoded+By+AkashBhai","amp;tr":["udp%3A%2F%2Ftracker.openbittorrent.com%3A80","udp%3A%2F%2Fopen.demonii.com%3A1337","udp%3A%2F%2Ftracker.coppersurfer.tk%3A6969","udp%3A%2F%2Fexodus.desync.com%3A6969"],"infoHash":"0d71f285f0253c5bc7c2df6d244b6e317db699e1","infoHashBuffer":{"type":"Buffer","data":[13,113,242,133,240,37,60,91,199,194,223,109,36,75,110,49,125,182,153,225]},"announce":[],"urlList":[]}}